<?xml version="1.0" encoding="UTF-8"?>
<svg id="Laag_2" data-name="Laag 2" xmlns="http://www.w3.org/2000/svg" viewBox="0 0 824.34 785.39">
  <defs>
    <style>
      .cls-1 {
        fill: #505050;
      }
    </style>
  </defs>
  <g id="Laag_2-2" data-name="Laag 2">
    <path class="cls-1" d="M6.92,315.02c3.08-8.15,5.94-16.38,8.73-24.63,3.44-10.16,6.79-20.33,10.34-30.37,3.62-9.85,6-16.36,8.71-20.3,2.63-3.83,5.56-5.25,10.22-4.98s11.03,2.2,20.55,5.1c10.57,3.44,21.14,6.9,31.71,10.38,6,1.97,11.99,3.95,17.99,5.93,9.17,3.03,18.35,6.07,27.52,9.11,10.66,3.53,21.32,7.07,31.99,10.59,7.94,2.63,15.87,5.25,23.81,7.86,11.55,3.8,23.1,7.59,34.64,11.35,5.11,1.76,9.06,3.19,12.02,4.62,8.88,4.28,8.87,8.5,4.71,21.48-1.72,5.55-3.38,10.82-5.01,15.9-3.52,11-6.91,21.15-10.51,31.62-3.31,9.6-6.8,19.47-10.76,30.49-1.96,5.43-3.43,9.51-4.9,12.46-4.41,8.84-8.8,7.53-26.36,2.3-8.04-2.56-16.02-5.1-23.95-7.63-10.54-3.37-20.99-6.72-31.37-10.06-11.25-3.63-22.41-7.24-33.51-10.86-8.85-2.88-17.65-5.77-26.44-8.66-16.79-5.52-33.48-11.07-50.17-16.68-6.75-2.67-12.04-4.77-16.08-6.74-7.31-3.57-10.5-6.74-10.78-12.22-.28-5.48,2.35-13.26,6.68-26.06h.22Z"/>
    <path class="cls-1" d="M686.44,734.61c-20.4,15.3-40.81,30.38-61.43,45.46-11.98,8.87-23.51,6.21-31.94-4.88-18.41-23.95-35.93-48.35-53.67-72.74-38.15-52.56-76.29-105.34-114.66-157.9-3.1-4.21-7.1-7.76-11.53-12.64-17.3,17.08-72.52,92.48-82.72,106.23-48.79,65.65-47.9,66.09-96.25,131.96-12.86,17.3-21.73,18.63-39.03,6.43-19.29-13.53-38.15-27.28-57.44-40.81-13.53-9.54-18.41-19.52-6.87-35.26,34.37-46.35,67.42-93.37,101.13-140.16,36.81-51.01,73.85-102.02,110.89-152.8,5.32-7.32,3.55-15.52,3.55-23.51V42.68C346.46,7.2,353.33.32,388.82.1c16.85,0,33.71-.22,50.56,0,28.39.44,37.26,9.54,37.48,37.7,0,107.12.44,214.23,0,321.13,1.77,52.56-7.32,33.71,20.18,70.75,35.26,43.47,66.31,90.26,99.13,135.73,31.71,47.46,66.98,88.93,96.47,134.62,9.54,14.86,6.88,24.84-5.77,34.15l-.44.44Z"/>
    <path class="cls-1" d="M791.11,362.7c-7.78,2.53-15.64,5.1-23.54,7.7-17.33,5.69-34.91,11.51-52.5,17.23-16.22,5.28-32.45,10.49-48.53,15.46-5.77,1.79-11.53,3.54-17.25,5.26-7.41,2.22-14.78,4.39-22.07,6.47-11.14,3.18-16.71,4.77-20.44,2.85-3.74-1.91-5.65-7.33-9.5-18.15-3.28-9.22-6.39-18.28-9.56-27.76-2.79-8.35-5.63-17.02-8.65-26.45-2.03-6.32-4.15-12.98-6.4-20.09-3.1-9.79-4.68-15.33-3-19.25,1.8-4.19,7.33-6.53,18.75-10.25,4.04-1.32,8.08-2.63,12.13-3.95,18.75-6.1,37.49-12.18,56.23-18.27,8.33-2.71,16.66-5.42,24.98-8.14,15.07-4.92,30.13-9.86,45.18-14.85,10.46-3.46,20.92-6.95,31.37-10.46,14.23-4.78,21.34-7.17,26.16-4.81,4.82,2.36,7.36,9.46,12.42,23.66,1.78,4.99,3.55,9.98,5.32,14.97,3.26,9.21,6.49,18.42,9.69,27.64,2.1,6.05,4.2,12.1,6.28,18.16,7.1,20.65,9.51,27.64-.6,33.42-5.18,2.96-13.65,5.61-26.45,9.6h0Z"/>
  </g>
</svg>