<?xml version="1.0" encoding="UTF-8"?>
<svg id="Laag_2" data-name="Laag 2" xmlns="http://www.w3.org/2000/svg" viewBox="0 0 412.97 389.44">
  <defs>
    <style>
      .cls-1 {
        fill: #9d9dfc;
      }
    </style>
  </defs>
  <g id="Layer_1" data-name="Layer 1">
    <path class="cls-1" d="M122.83,375.37c-2.83,3.71-5.32,7.71-8.36,11.24-2.88,3.35-9.44,3.74-12.99,1.1-4.2-3.12-8.2-6.51-12.44-9.57-5.39-3.88-11.21-7.2-16.31-11.41-3.58-2.96-9.42-4.36-9.5-10.32-.03-2.5.77-5.33,2.09-7.46,3.82-6.16,106.68-143.87,108.28-147.88.17-.47.24-.65.64-.99.96-2.63,2.15-5.1,2.15-7.58.1-61.77.08-123.55.12-185.66.11-.79-.55-1.54,1.68-5.23,3.33-2.03,5.05-1.59,5.34-1.54,17.55-.3,28.99.42,46.41.1.7.1,3.57.46,4.1.83,1.35.71,2.21,1.85,3.15,3.12,1.38,1.87,1.14,2.84,1.17,5.64,0,60.1,0,119.73-.13,179.56-.05.79.05,1.38.14,2.4.02,2.12.05,3.81.15,5.84,1.42,1.76,112.62,150.22,112.13,156.93.7,2.25-2.12,6.34-4.47,8.19-9.54,7.51-19.49,14.49-29.33,21.62-2.33,1.69-4.64,4.24-7.2,4.57-4.19.54-8.46,1.66-12.03-3.67-16.01-23.55-62.95-86.73-63.25-86.97,0,0-4.47-6.33-5.78-8.18,0,0-18.72-24.66-21.99-28.9"/>
    <path class="cls-1" d="M38.18,122.87c20.16,7.53,41.13,12.78,61.38,19.98,8.55,3.74,22.68,4.53,26.18,14.28,2.9,9.7-3.76,22.05-6.53,31.71-6.25,18.72-11.31,27.32-32.23,19.38-21.93-7.31-43.93-14.34-65.86-21.62-6.59-2.11-14.33-4.27-18.4-10.16-5.53-7.91-1.35-19.19,1.58-27.9,2.5-6.99,4.17-14.57,7.78-21.01,5.61-10.1,16.57-7.92,25.92-4.72l.19.06Z"/>
    <path class="cls-1" d="M403.28,134.67c2.4,7.72,4.88,15.82,7.47,23.78,1.84,5.81,3.91,12.86,0,18.22-2.53,3.57-7.27,5.83-11.45,7.49-4.88,1.92-9.8,3.67-14.74,5.4-20.92,7.2-41.9,13.98-63.07,20.05-16.92,4.99-20.93-2.37-25.44-17.27-3.11-10.66-9.28-22.41-7.01-33.53,1.46-5.82,7.2-8.84,12.58-10.6,8.36-2.74,16.47-5.84,25.02-8.69,13.47-3.92,26.67-8.58,39.83-13.47,14.59-4.75,31.16-11.64,36.76,8.43l.06.19Z"/>
  </g>
</svg>